<mxfile
  host="Electron" 
  agent="Mozilla/5.0 (Macintosh; Intel Mac OS X 10_15_7) AppleWebKit/537.36 (KHTML, like Gecko) draw.io/25.0.2 Chrome/128.0.6613.186 Electron/32.2.5 Safari/537.36" 
  version="25.0.2"
  >
  <diagram
    name="-"
    >
    <mxGraphModel
      grid="1" 
      gridSize="10" 
      guides="1" 
      tooltips="1" 
      connect="1" 
      arrows="1" 
      fold="1" 
      page="1" 
      pageScale="1" 
      pageWidth="1" 
      pageHeight="1" 
      math="0" 
      shadow="0"
      >
      <root>
        <mxCell
          id="page"
          />
        <mxCell
          id="root" 
          parent="page"
          />
        <mxCell
          style="verticalAlign=top;aspect=fixed;align=center;spacingLeft=5;spacingRight=5;spacingBottom=5;strokeColor=none;" 
          id="shape_" 
          parent="root" 
          value=" " 
          vertex="1"
          >
          <mxGeometry
            as="geometry" 
            width="102" 
            height="94" 
            x="0" 
            y="0"
            />
          </mxCell>
        <mxCell
          style="rounded=1;whiteSpace=wrap;verticalAlign=top;align=center;sketch=0;html=1;labelPosition=center;verticalLabelPosition=bottom;spacingTop=-6;fontSize=11;fontStyle=1;fontColor=#999999;shape=image;aspect=fixed;imageAspect=0;image=data:image/svg+xml,PHN2ZyB4bWxucz0iaHR0cDovL3d3dy53My5vcmcvMjAwMC9zdmciIHhtbG5zOnY9Imh0dHBzOi8vdmVjdGEuaW8vbmFubyIgd2lkdGg9IjM3Ny42MDkwNzg2ODcyMTAwNiIgaGVpZ2h0PSIzMDYuMjk2NTE2MDQzNTQ3NzQiIHZpZXdCb3g9IjAuMDE5MDAwMDAxMjUxNjk3NTQgMC4yMzIwMDAwMDgyMjU0NDA5OCA5OS45MDkwMDQyMTE0MjU3OCA4MS4wNDEwMDAzNjYyMTA5NCI+JiN4YTs8c3R5bGUgdHlwZT0idGV4dC9jc3MiPiYjeGE7CS5zdDB7ZmlsbDojNjY5ZGY2O30mI3hhOwkuc3Qxe2ZpbGw6I2FlY2JmYTt9JiN4YTsJLnN0MntmaWxsOiM0Mjg1ZjQ7fSYjeGE7PC9zdHlsZT4mI3hhOwk8cGF0aCBjbGFzcz0ic3QwIiBkPSJNMjUuMTgzLjIzMkw3LjM1MyAzNy4zNjYuMDQ4IDM3LjMzbC0uMDI5IDYgMjkuNDkyLjE0NmMxLjA4NiA2LjE1IDYuNDk5IDEwLjg3NiAxMi45NDQgMTAuODc2IDcuMjE4IDAgMTMuMTQ0LTUuOTI3IDEzLjE0NC0xMy4xNDRzLTUuOTI3LTEzLjE0NS0xMy4xNDQtMTMuMTQ1Yy01LjkyNCAwLTEwLjk3NiAzLjk5My0xMi41OTcgOS40MTVsLTEyLjU0NC0uMDYyTDMwLjg0NSA5LjIzMmgzMC4xMjl2LTlIMjUuMTgzem0xNy4yNzEgMzQuODNhNi4wOSA2LjA5IDAgMCAxIDYuMTQ1IDYuMTQ1IDYuMDkgNi4wOSAwIDAgMS02LjE0NSA2LjE0NGMtMi42MTYgMC00LjgwOS0xLjU3My01LjcwNi0zLjg0bDMuMjE0LjAxNi4wMjktNi0yLjQ3My0uMDEyYzEuMTEyLTEuNDk2IDIuODk2LTIuNDUzIDQuOTM2LTIuNDUzek0xNy44ODIgNDUuNzExbC04LjA4NiAzLjk1MSAxNS40NDEgMzEuNjExaDM1LjczNnYtOUgzMC44NThMMTcuODgyIDQ1LjcxMXoiLz4mI3hhOwk8cGF0aCBjbGFzcz0ic3QxIiBkPSJNNjAuOTc0IDgxLjI3M2gzOC45NTRWNjAuOTIyaC05LjAwM3YxMS4zNTJINjAuOTc0em0wLTcyLjA0MWgyOS45NTF2MTEuNzU1aDkuMDAzVi4yMzJINjAuOTc0eiIvPiYjeGE7CTxwYXRoIGNsYXNzPSJzdDIiIGQ9Ik03NS43OTYgMjAuOTg3djguOTk5aDI0LjEzMnYtOC45OTl6TTYxLjExIDM1LjkyOHY5aDM4LjgxN3YtOXpNNzEuMjc0IDUxLjkxdjkuMDEyaDI4LjY1M1Y1MS45MXoiLz4mI3hhOzwvc3ZnPg;strokeColor=none;" 
          id="data_labeling_" 
          parent="shape_" 
          value=" " 
          vertex="1"
          >
          <mxGeometry
            width="42" 
            height="34" 
            as="geometry" 
            x="30" 
            y="30"
            />
          </mxCell>
        </root>
      </mxGraphModel>
    </diagram>
  </mxfile>